<?xml version="1.0" encoding="UTF-8"?>
<!DOCTYPE svg PUBLIC "-//W3C//DTD SVG 1.1//EN" "http://www.w3.org/Graphics/SVG/1.1/DTD/svg11.dtd">
<svg xmlns="http://www.w3.org/2000/svg" version="1.1" width="474px" height="474px" style="shape-rendering:geometricPrecision; text-rendering:geometricPrecision; image-rendering:optimizeQuality; fill-rule:evenodd; clip-rule:evenodd" xmlns:xlink="http://www.w3.org/1999/xlink">
<g><path style="opacity:0.256" fill="#fefffe" d="M -0.5,-0.5 C 157.5,-0.5 315.5,-0.5 473.5,-0.5C 473.5,156.833 473.5,314.167 473.5,471.5C 315.5,471.5 157.5,471.5 -0.5,471.5C -0.5,314.167 -0.5,156.833 -0.5,-0.5 Z M 200.5,57.5 C 199.227,56.9232 199.227,56.2565 200.5,55.5C 201.463,55.9698 201.463,56.6365 200.5,57.5 Z M 212.5,57.5 C 212.082,56.7784 211.416,56.2784 210.5,56C 211,55.8333 211.5,55.6667 212,55.5C 213.416,56.5733 214.75,56.5733 216,55.5C 217.693,56.1845 219.193,57.1845 220.5,58.5C 222.747,57.6258 225.08,57.2924 227.5,57.5C 229.292,58.3091 231.292,58.8091 233.5,59C 230.62,59.6841 227.787,59.5174 225,58.5C 224.894,59.7939 223.894,60.4606 222,60.5C 220.634,60.2935 219.301,59.9602 218,59.5C 217.055,59.9054 216.388,60.572 216,61.5C 215.329,60.7476 214.496,60.4142 213.5,60.5C 211.653,59.4271 209.653,59.4271 207.5,60.5C 207.5,60.1667 207.5,59.8333 207.5,59.5C 208.043,59.44 208.376,59.1067 208.5,58.5C 206.833,57.8333 205.167,57.1667 203.5,56.5C 203.667,56.1667 203.833,55.8333 204,55.5C 205.458,56.7468 206.958,56.7468 208.5,55.5C 209.524,56.8532 210.857,57.5198 212.5,57.5 Z M 247.5,56.5 C 247.5,56.8333 247.5,57.1667 247.5,57.5C 245.08,57.7076 242.747,57.3742 240.5,56.5C 239.702,56.9569 239.369,57.6236 239.5,58.5C 236.99,58.9465 234.99,58.2798 233.5,56.5C 238.156,55.2958 242.823,55.2958 247.5,56.5 Z M 256.5,55.5 C 257.675,55.281 258.675,55.6143 259.5,56.5C 257.948,57.7979 256.948,57.4646 256.5,55.5 Z M 265.5,61.5 C 261.722,60.8066 261.722,59.6399 265.5,58C 264.328,57.5814 263.328,56.9147 262.5,56C 265.503,56.2526 268.503,56.9192 271.5,58C 266.167,58.6667 266.167,59.3333 271.5,60C 269.292,60.1909 267.292,60.6909 265.5,61.5 Z M 247.5,57.5 C 249.167,57.5 250.833,57.5 252.5,57.5C 255.305,58.3195 258.305,58.8195 261.5,59C 258.657,59.4461 255.824,59.9461 253,60.5C 248.475,60.4485 243.975,59.7819 239.5,58.5C 242.385,58.8064 245.052,58.4731 247.5,57.5 Z M 201.5,58.5 C 203.735,58.2053 205.735,58.5386 207.5,59.5C 204.843,59.162 202.51,59.8287 200.5,61.5C 200.167,61.1667 199.833,60.8333 199.5,60.5C 200.243,59.8182 200.909,59.1515 201.5,58.5 Z M 171.5,66.5 C 168.916,67.0483 167.916,68.715 168.5,71.5C 167.203,69.3066 167.203,66.9732 168.5,64.5C 171.815,62.7834 172.815,63.4501 171.5,66.5 Z M 176.5,64.5 C 177.601,63.4017 178.934,63.235 180.5,64C 182.5,65 184.5,66 186.5,67C 185.552,67.4828 184.552,67.6495 183.5,67.5C 183.158,66.6618 182.492,66.3284 181.5,66.5C 180.22,65.0687 178.553,64.4021 176.5,64.5 Z M 297.5,64.5 C 295.911,65.6211 294.244,65.4544 292.5,64C 294.197,63.6155 295.863,63.7822 297.5,64.5 Z M 297.5,64.5 C 298.935,63.9035 300.602,63.9035 302.5,64.5C 303.85,65.6499 303.684,66.3166 302,66.5C 300.415,65.9561 298.915,65.2894 297.5,64.5 Z M 175.5,64.5 C 175.833,64.5 176.167,64.5 176.5,64.5C 177.78,65.9313 179.447,66.5979 181.5,66.5C 180.5,67.1667 179.5,67.8333 178.5,68.5C 177.348,67.375 176.348,67.375 175.5,68.5C 173.637,70.7053 171.303,72.0387 168.5,72.5C 168.5,72.1667 168.5,71.8333 168.5,71.5C 171.084,70.9517 172.084,69.285 171.5,66.5C 173.483,66.8432 174.817,66.1765 175.5,64.5 Z M 185.5,64.5 C 187.527,64.3379 189.527,64.5045 191.5,65C 189.246,67.0216 187.246,66.8549 185.5,64.5 Z M 281.5,65.5 C 282.721,64.5354 284.054,64.702 285.5,66C 284.072,66.5791 282.738,66.4124 281.5,65.5 Z M 288.5,64.5 C 291.946,65.9277 295.613,66.7611 299.5,67C 301.426,67.4224 302.426,68.5891 302.5,70.5C 301.18,69.0582 299.514,68.3915 297.5,68.5C 295.735,67.5386 293.735,67.2053 291.5,67.5C 290.791,66.596 289.791,66.2627 288.5,66.5C 288.5,65.8333 288.5,65.1667 288.5,64.5 Z M 297.5,68.5 C 297.833,69.1667 298.167,69.8333 298.5,70.5C 291.621,69.4326 291.288,68.7659 297.5,68.5 Z M 302.5,70.5 C 303.773,71.0768 303.773,71.7435 302.5,72.5C 301.537,72.0302 301.537,71.3635 302.5,70.5 Z M 159.5,73.5 C 153.147,73.5474 152.98,72.8808 159,71.5C 159.464,72.0944 159.631,72.7611 159.5,73.5 Z M 164.5,73.5 C 164.511,70.9991 165.178,70.8324 166.5,73C 165.906,73.4643 165.239,73.631 164.5,73.5 Z M 313.5,73.5 C 313.843,71.7748 314.843,71.2748 316.5,72C 315.756,73.0386 314.756,73.5386 313.5,73.5 Z M 306.5,72.5 C 307.5,72.5 308.5,72.5 309.5,72.5C 309.833,73.1667 310.167,73.8333 310.5,74.5C 308.847,74.3404 307.514,73.6737 306.5,72.5 Z M 151.5,74.5 C 153.07,73.4407 154.403,73.9407 155.5,76C 154.5,76.5 153.5,77 152.5,77.5C 152.407,76.5281 152.074,75.5281 151.5,74.5 Z M 155.5,78.5 C 156.314,76.7274 157.648,76.2274 159.5,77C 158.255,77.7914 156.922,78.2914 155.5,78.5 Z M 316.5,78.5 C 314.663,78.3605 314.33,77.6939 315.5,76.5C 316.298,76.9569 316.631,77.6236 316.5,78.5 Z M 147.5,80.5 C 147.5,80.8333 147.5,81.1667 147.5,81.5C 144.482,81.7038 141.482,82.0371 138.5,82.5C 138.281,81.325 138.614,80.325 139.5,79.5C 142.119,79.2622 144.785,79.5955 147.5,80.5 Z M 324.5,80.5 C 323.508,80.3284 322.842,80.6618 322.5,81.5C 321.115,80.6977 321.282,80.0311 323,79.5C 323.765,79.5699 324.265,79.9033 324.5,80.5 Z M 324.5,80.5 C 325.167,80.5 325.833,80.5 326.5,80.5C 326.833,81.1667 327.167,81.8333 327.5,82.5C 326.833,82.5 326.167,82.5 325.5,82.5C 325.167,81.8333 324.833,81.1667 324.5,80.5 Z M 147.5,81.5 C 150.001,81.5109 150.168,82.1776 148,83.5C 147.536,82.9056 147.369,82.2389 147.5,81.5 Z M 332.5,82.5 C 336.276,82.4692 336.443,83.1359 333,84.5C 331.316,84.3166 331.15,83.6499 332.5,82.5 Z M 136.5,83.5 C 137.735,83.7214 138.735,84.3881 139.5,85.5C 140.86,84.8201 142.193,84.1534 143.5,83.5C 143.5,84.1667 143.5,84.8333 143.5,85.5C 141.926,85.9371 140.759,86.9371 140,88.5C 139.692,87.6919 139.192,87.0253 138.5,86.5C 138.167,87.1667 137.833,87.8333 137.5,88.5C 136.692,88.1924 136.025,87.6924 135.5,87C 136.337,85.9887 136.67,84.8221 136.5,83.5 Z M 331.5,86.5 C 330.244,86.5386 329.244,86.0386 328.5,85C 329.998,84.4153 330.998,84.9153 331.5,86.5 Z M 334.5,87.5 C 333.209,87.7373 332.209,87.404 331.5,86.5C 332.583,86.4606 333.583,86.1272 334.5,85.5C 335.463,85.9698 335.463,86.6365 334.5,87.5 Z M 334.5,88.5 C 334.5,88.1667 334.5,87.8333 334.5,87.5C 336.429,87.2308 338.095,87.7308 339.5,89C 338.906,89.4643 338.239,89.631 337.5,89.5C 336.791,88.596 335.791,88.2627 334.5,88.5 Z M 132.5,89.5 C 132.167,90.1667 131.833,90.8333 131.5,91.5C 130.833,91.5 130.167,91.5 129.5,91.5C 129.973,90.0937 130.973,89.427 132.5,89.5 Z M 134.5,90.5 C 135.167,90.5 135.833,90.5 136.5,90.5C 135.452,92.9327 134.786,92.9327 134.5,90.5 Z M 337.5,90.5 C 340.001,90.5109 340.168,91.1776 338,92.5C 337.536,91.9056 337.369,91.2389 337.5,90.5 Z M 128.5,93.5 C 129.167,93.5 129.833,93.5 130.5,93.5C 132.031,94.9245 131.698,95.5912 129.5,95.5C 129.167,94.8333 128.833,94.1667 128.5,93.5 Z M 124.5,97.5 C 122.972,97.4827 122.472,96.816 123,95.5C 123.717,96.0442 124.217,96.7109 124.5,97.5 Z M 129.5,95.5 C 128.833,96.8333 127.833,97.8333 126.5,98.5C 126.5,97.8333 126.167,97.5 125.5,97.5C 126.287,95.8958 127.62,95.2291 129.5,95.5 Z M 122.5,99.5 C 121.833,99.5 121.167,99.5 120.5,99.5C 120.786,97.0673 121.452,97.0673 122.5,99.5 Z M 349.5,98.5 C 349.5,99.8333 348.833,100.5 347.5,100.5C 347.833,99.5 348.5,98.8333 349.5,98.5 Z M 120.5,100.5 C 121.167,100.5 121.833,100.5 122.5,100.5C 122.214,102.933 121.548,102.933 120.5,100.5 Z M 347.5,100.5 C 348.5,101.167 349.5,101.833 350.5,102.5C 349.298,103.405 347.964,103.405 346.5,102.5C 346.328,101.508 346.662,100.842 347.5,100.5 Z M 113.5,106.5 C 112.833,106.5 112.5,106.833 112.5,107.5C 111.402,106.399 111.235,105.066 112,103.5C 112.513,104.527 113.013,105.527 113.5,106.5 Z M 114.5,104.5 C 115.167,104.833 115.833,105.167 116.5,105.5C 116.158,106.338 115.492,106.672 114.5,106.5C 114.5,105.833 114.5,105.167 114.5,104.5 Z M 338.5,108.5 C 339.167,109.167 339.833,109.833 340.5,110.5C 339.5,110.5 338.5,110.5 337.5,110.5C 337.328,109.508 337.662,108.842 338.5,108.5 Z M 334.5,113.5 C 334.158,114.338 333.492,114.672 332.5,114.5C 332.409,112.302 333.075,111.969 334.5,113.5 Z M 332.5,115.5 C 334.424,115.711 334.757,116.377 333.5,117.5C 333.167,116.833 332.833,116.167 332.5,115.5 Z M 327.5,117.5 C 327.5,118.167 327.833,118.5 328.5,118.5C 327.791,119.404 326.791,119.737 325.5,119.5C 325.833,118.5 326.5,117.833 327.5,117.5 Z M 100.5,121.5 C 99.4937,122.396 99.4937,123.062 100.5,123.5C 99.8946,125.481 98.8946,125.815 97.5,124.5C 98.1157,123.202 98.1157,122.202 97.5,121.5C 97.0825,120.778 96.4158,120.278 95.5,120C 97.4952,119.387 99.1619,119.887 100.5,121.5 Z M 323.5,121.5 C 324.167,121.5 324.833,121.5 325.5,121.5C 325.027,122.906 324.027,123.573 322.5,123.5C 322.5,123.167 322.5,122.833 322.5,122.5C 323.167,122.5 323.5,122.167 323.5,121.5 Z M 318.5,124.5 C 319.568,123.566 320.901,123.232 322.5,123.5C 322.586,124.496 322.252,125.329 321.5,126C 322.094,126.464 322.761,126.631 323.5,126.5C 322.791,127.404 321.791,127.737 320.5,127.5C 320.715,125.821 320.048,124.821 318.5,124.5 Z M 325.5,124.5 C 325.5,125.833 324.833,126.5 323.5,126.5C 323.5,125.167 324.167,124.5 325.5,124.5 Z M 318.5,126.5 C 318.539,127.583 318.873,128.583 319.5,129.5C 318.675,130.386 317.675,130.719 316.5,130.5C 317.684,129.312 317.684,128.145 316.5,127C 317.094,126.536 317.761,126.369 318.5,126.5 Z M 313.5,129.5 C 313.517,127.972 314.184,127.472 315.5,128C 314.956,128.717 314.289,129.217 313.5,129.5 Z M 88.5,129.5 C 88.8333,129.5 89.1667,129.5 89.5,129.5C 90.1098,130.391 90.4431,131.391 90.5,132.5C 89.8333,132.167 89.1667,131.833 88.5,131.5C 88.5,130.833 88.5,130.167 88.5,129.5 Z M 314.5,131.5 C 314.483,133.028 313.816,133.528 312.5,133C 313.044,132.283 313.711,131.783 314.5,131.5 Z M 308.5,132.5 C 310.124,135.358 309.457,136.025 306.5,134.5C 306.833,133.5 307.5,132.833 308.5,132.5 Z M 318.5,132.5 C 317.594,134.914 315.928,135.747 313.5,135C 315.078,133.906 316.745,133.072 318.5,132.5 Z M 310.5,133.5 C 311.289,133.783 311.956,134.283 312.5,135C 311.184,135.528 310.517,135.028 310.5,133.5 Z M 88.5,134.5 C 89.3957,135.506 90.0623,135.506 90.5,134.5C 91.2389,134.369 91.9056,134.536 92.5,135C 91.4293,135.852 90.4293,136.685 89.5,137.5C 88.8333,137.5 88.5,137.833 88.5,138.5C 87.3569,138.092 86.3569,137.425 85.5,136.5C 86.2739,135.289 87.1072,135.289 88,136.5C 88.4643,135.906 88.631,135.239 88.5,134.5 Z M 302.5,139.5 C 301.537,138.637 301.537,137.97 302.5,137.5C 303.773,138.257 303.773,138.923 302.5,139.5 Z M 79.5,138.5 C 81.9732,138.947 82.1399,139.947 80,141.5C 79.5172,140.552 79.3505,139.552 79.5,138.5 Z M 88.5,139.5 C 86.6329,140.76 85.2995,142.427 84.5,144.5C 84.1667,144.5 83.8333,144.5 83.5,144.5C 83.5,143.833 83.1667,143.5 82.5,143.5C 83.1441,140.196 85.1441,138.862 88.5,139.5 Z M 300.5,139.5 C 301.167,139.5 301.833,139.5 302.5,139.5C 302.315,141.196 301.481,142.529 300,143.5C 299.517,142.552 299.351,141.552 299.5,140.5C 300.167,140.5 300.5,140.167 300.5,139.5 Z M 223.5,141.5 C 221.11,141.855 218.777,142.522 216.5,143.5C 215.274,143.48 214.274,143.147 213.5,142.5C 216.14,142.447 218.64,141.78 221,140.5C 222.07,140.528 222.903,140.861 223.5,141.5 Z M 239.5,140.5 C 242.839,140.89 246.173,141.39 249.5,142C 248.5,142.5 247.5,143 246.5,143.5C 244.197,142.319 241.863,142.319 239.5,143.5C 238.833,143.333 238.167,143.167 237.5,143C 238.756,142.583 239.423,141.75 239.5,140.5 Z M 223.5,141.5 C 226.874,141.674 230.207,142.174 233.5,143C 229.888,143.674 226.554,143.174 223.5,141.5 Z M 265.5,146.5 C 263.775,146.157 263.275,145.157 264,143.5C 264.513,144.527 265.013,145.527 265.5,146.5 Z M 203.5,145.5 C 202.609,146.11 201.609,146.443 200.5,146.5C 201.221,144.618 202.221,144.285 203.5,145.5 Z M 203.5,145.5 C 204.5,145.5 205.5,145.5 206.5,145.5C 206.5,145.833 206.5,146.167 206.5,146.5C 205.391,146.557 204.391,146.89 203.5,147.5C 203.5,146.833 203.5,146.167 203.5,145.5 Z M 200.5,146.5 C 201.209,147.404 202.209,147.737 203.5,147.5C 202.432,148.434 201.099,148.768 199.5,148.5C 196.742,147.033 197.075,146.367 200.5,146.5 Z M 265.5,146.5 C 267.5,146.833 269.5,147.167 271.5,147.5C 269.735,148.461 267.735,148.795 265.5,148.5C 265.5,147.833 265.5,147.167 265.5,146.5 Z M 291.5,146.5 C 292.167,146.5 292.833,146.5 293.5,146.5C 293.167,147.167 292.833,147.833 292.5,148.5C 291.833,148.5 291.167,148.5 290.5,148.5C 290.5,148.167 290.5,147.833 290.5,147.5C 291.167,147.5 291.5,147.167 291.5,146.5 Z M 206.5,148.5 C 206.5,149.167 206.5,149.833 206.5,150.5C 204.067,149.452 204.067,148.786 206.5,148.5 Z M 292.5,148.5 C 293.167,148.5 293.833,148.5 294.5,148.5C 294.027,149.906 293.027,150.573 291.5,150.5C 291.833,149.833 292.167,149.167 292.5,148.5 Z M 194.5,149.5 C 194.027,150.906 193.027,151.573 191.5,151.5C 191.973,150.094 192.973,149.427 194.5,149.5 Z M 198.5,149.5 C 198.842,150.338 199.508,150.672 200.5,150.5C 199.292,151.782 197.958,151.782 196.5,150.5C 196.957,149.702 197.624,149.369 198.5,149.5 Z M 71.5,151.5 C 73.7602,152.238 73.9269,153.238 72,154.5C 71.5172,153.552 71.3505,152.552 71.5,151.5 Z M 77.5,151.5 C 78.4646,152.721 78.298,154.054 77,155.5C 76.4209,154.072 76.5876,152.738 77.5,151.5 Z M 189.5,153.5 C 189.217,154.289 188.717,154.956 188,155.5C 187.472,154.184 187.972,153.517 189.5,153.5 Z M 73.5,154.5 C 75.337,154.639 75.6704,155.306 74.5,156.5C 73.7025,156.043 73.3691,155.376 73.5,154.5 Z M 73.5,160.5 C 73.1667,160.5 72.8333,160.5 72.5,160.5C 71.9717,159.153 71.805,157.819 72,156.5C 73.1882,157.563 73.6882,158.897 73.5,160.5 Z M 186.5,157.5 C 186.5,157.167 186.5,156.833 186.5,156.5C 188.38,156.229 189.713,156.896 190.5,158.5C 189.167,158.167 187.833,157.833 186.5,157.5 Z M 184.5,157.5 C 185.167,157.5 185.833,157.5 186.5,157.5C 187.061,160.187 186.394,160.187 184.5,157.5 Z M 74.5,159.5 C 75.0768,158.227 75.7435,158.227 76.5,159.5C 76.0302,160.463 75.3635,160.463 74.5,159.5 Z M 72.5,163.5 C 72.3284,164.492 72.6618,165.158 73.5,165.5C 73.5,165.833 73.5,166.167 73.5,166.5C 71.4482,165.947 71.1148,164.947 72.5,163.5 Z M 174.5,163.5 C 175.757,164.623 175.424,165.289 173.5,165.5C 173.833,164.833 174.167,164.167 174.5,163.5 Z M 171.5,165.5 C 172.167,165.5 172.833,165.5 173.5,165.5C 173.214,167.933 172.548,167.933 171.5,165.5 Z M 73.5,167.5 C 73.4891,170.001 72.8224,170.168 71.5,168C 72.0944,167.536 72.7611,167.369 73.5,167.5 Z M 163.5,172.5 C 163.783,171.711 164.283,171.044 165,170.5C 165.528,171.816 165.028,172.483 163.5,172.5 Z M 66.5,178.5 C 65.1667,178.5 64.5,179.167 64.5,180.5C 63.596,179.791 63.2627,178.791 63.5,177.5C 64.791,177.263 65.791,177.596 66.5,178.5 Z M 64.5,180.5 C 65.5,181.167 66.5,181.833 67.5,182.5C 67.6567,183.873 67.49,185.207 67,186.5C 65.878,184.593 65.0447,182.593 64.5,180.5 Z M 156.5,182.5 C 156.5,182.167 156.5,181.833 156.5,181.5C 157.167,181.5 157.833,181.5 158.5,181.5C 158.5,182.167 158.5,182.833 158.5,183.5C 157.833,183.167 157.167,182.833 156.5,182.5 Z M 64.5,191.5 C 63.5651,188.887 63.3985,186.221 64,183.5C 64.8372,185.351 65.6705,187.184 66.5,189C 65.9341,189.995 65.2674,190.828 64.5,191.5 Z M 154.5,189.5 C 153.833,189.5 153.167,189.5 152.5,189.5C 153.167,186.833 153.833,186.833 154.5,189.5 Z M 150.5,191.5 C 151.598,192.601 151.765,193.934 151,195.5C 150.617,194.944 150.117,194.611 149.5,194.5C 149.5,193.833 149.5,193.167 149.5,192.5C 150.167,192.5 150.5,192.167 150.5,191.5 Z M 149.5,194.5 C 149.5,195.167 149.5,195.833 149.5,196.5C 147.067,195.452 147.067,194.786 149.5,194.5 Z M 149.5,196.5 C 151.326,198.437 151.493,200.437 150,202.5C 149.505,200.527 149.338,198.527 149.5,196.5 Z M 147.5,197.5 C 147.98,200.078 148.98,202.412 150.5,204.5C 150.167,205.5 149.5,206.167 148.5,206.5C 148.214,204.067 147.548,204.067 146.5,206.5C 146.167,206.5 145.833,206.5 145.5,206.5C 145.5,205.5 145.5,204.5 145.5,203.5C 147.552,202.947 147.885,201.947 146.5,200.5C 146.5,200.167 146.5,199.833 146.5,199.5C 147.338,199.158 147.672,198.492 147.5,197.5 Z M 55.5,199.5 C 57.337,199.639 57.6704,200.306 56.5,201.5C 55.7025,201.043 55.3691,200.376 55.5,199.5 Z M 59.5,199.5 C 61.337,199.639 61.6704,200.306 60.5,201.5C 59.7025,201.043 59.3691,200.376 59.5,199.5 Z M 146.5,200.5 C 146.443,201.609 146.11,202.609 145.5,203.5C 144.285,202.221 144.618,201.221 146.5,200.5 Z M 58.5,207.5 C 58.1667,208.5 57.5,209.167 56.5,209.5C 56.3379,207.473 56.5045,205.473 57,203.5C 57.21,205.058 57.71,206.391 58.5,207.5 Z M 59.5,207.5 C 59.8333,207.5 60.1667,207.5 60.5,207.5C 61.2178,209.137 61.3845,210.803 61,212.5C 60.7216,211.584 60.2216,210.918 59.5,210.5C 59.5,209.5 59.5,208.5 59.5,207.5 Z M 59.5,210.5 C 60.5812,213.332 60.4145,215.998 59,218.5C 58.4718,211.927 57.6385,211.927 56.5,218.5C 56.1667,218 55.8333,217.5 55.5,217C 56.1476,215.56 56.4809,214.06 56.5,212.5C 57.2223,211.449 58.2223,210.782 59.5,210.5 Z M 142.5,231.5 C 142.806,228.615 142.473,225.948 141.5,223.5C 141.579,222.07 141.246,220.736 140.5,219.5C 141.631,218.396 142.465,218.729 143,220.5C 143.81,224.358 143.643,228.024 142.5,231.5 Z M 59.5,223.5 C 58.7502,228.585 58.7502,233.585 59.5,238.5C 58.2066,240.103 57.2066,241.769 56.5,243.5C 56.5,241.5 56.5,239.5 56.5,237.5C 56.2571,231.659 56.7571,225.659 58,219.5C 58.21,221.058 58.71,222.391 59.5,223.5 Z M 405.5,224.5 C 405.833,225.5 406.5,226.167 407.5,226.5C 406.652,227.625 405.652,227.625 404.5,226.5C 402.312,225.377 399.979,225.377 397.5,226.5C 397.833,225.833 398.167,225.167 398.5,224.5C 400.833,223.167 403.167,223.167 405.5,224.5 Z M 407.5,226.5 C 408.848,225.399 410.348,224.399 412,223.5C 412.374,224.416 412.874,225.25 413.5,226C 411.613,225.577 409.613,225.744 407.5,226.5 Z M 400.5,227.5 C 401.568,226.566 402.901,226.232 404.5,226.5C 404.631,227.239 404.464,227.906 404,228.5C 402.989,227.663 401.822,227.33 400.5,227.5 Z M 398.5,228.5 C 396.247,231.036 393.914,231.036 391.5,228.5C 393.552,228.295 395.886,228.295 398.5,228.5 Z M 413.5,227.5 C 415.337,227.639 415.67,228.306 414.5,229.5C 413.702,229.043 413.369,228.376 413.5,227.5 Z M 140.5,231.5 C 141.167,231.5 141.833,231.5 142.5,231.5C 142.481,233.06 142.148,234.56 141.5,236C 142.388,237.22 143.055,238.553 143.5,240C 142.407,242.734 142.407,245.4 143.5,248C 142.446,250.382 141.779,252.882 141.5,255.5C 141.151,252.358 140.984,249.025 141,245.5C 140.5,245 140,244.5 139.5,244C 142.428,242.476 142.761,240.976 140.5,239.5C 140.5,236.833 140.5,234.167 140.5,231.5 Z M 363.5,233.5 C 362.5,232.167 361.5,232.167 360.5,233.5C 359.957,233.44 359.624,233.107 359.5,232.5C 360.333,232.167 361.167,231.833 362,231.5C 364.893,232.28 367.559,232.28 370,231.5C 371.225,231.862 372.391,232.362 373.5,233C 370.104,234.339 366.77,234.506 363.5,233.5 Z M 360.5,234.5 C 361.99,236.28 363.99,236.946 366.5,236.5C 365.828,237.267 364.995,237.934 364,238.5C 362.989,237.663 361.822,237.33 360.5,237.5C 359.375,236.348 359.375,235.348 360.5,234.5 Z M 336.5,240.5 C 338.027,240.427 339.027,241.094 339.5,242.5C 338.833,242.5 338.167,242.5 337.5,242.5C 337.167,241.833 336.833,241.167 336.5,240.5 Z M 414.5,240.5 C 414.777,244.398 414.944,248.398 415,252.5C 413.701,251.91 412.868,250.91 412.5,249.5C 413.586,246.58 414.252,243.58 414.5,240.5 Z M 327.5,242.5 C 329.208,242.377 331.041,242.044 333,241.5C 333.188,243.061 332.355,243.728 330.5,243.5C 330.5,244.5 330.5,245.5 330.5,246.5C 329.448,246.649 328.448,246.483 327.5,246C 328.791,244.708 328.791,243.542 327.5,242.5 Z M 337.5,242.5 C 337.842,243.338 338.508,243.672 339.5,243.5C 339.5,243.833 339.5,244.167 339.5,244.5C 338.5,244.5 337.5,244.5 336.5,244.5C 334.969,243.075 335.302,242.409 337.5,242.5 Z M 59.5,251.5 C 58.9919,248.824 58.8253,246.157 59,243.5C 60.6357,246.227 60.8024,248.893 59.5,251.5 Z M 336.5,244.5 C 335.329,245.345 333.995,246.011 332.5,246.5C 333.183,244.824 334.517,244.157 336.5,244.5 Z M 332.5,246.5 C 332.483,248.028 331.816,248.528 330.5,248C 331.044,247.283 331.711,246.783 332.5,246.5 Z M 56.5,247.5 C 57.8571,248.59 58.8571,249.924 59.5,251.5C 59.8432,253.483 59.1765,254.817 57.5,255.5C 57.4249,252.794 57.0916,250.127 56.5,247.5 Z M 332.5,250.5 C 331.862,252.46 331.862,254.293 332.5,256C 331.906,256.464 331.239,256.631 330.5,256.5C 330.259,254.102 330.926,252.102 332.5,250.5 Z M 57.5,255.5 C 57.5,256.5 57.5,257.5 57.5,258.5C 55.6742,256.545 55.1742,254.212 56,251.5C 56.21,253.058 56.71,254.391 57.5,255.5 Z M 141.5,255.5 C 142.222,255.082 142.722,254.416 143,253.5C 143.774,255.403 143.44,257.07 142,258.5C 141.517,257.552 141.351,256.552 141.5,255.5 Z M 414.5,263.5 C 413.833,263.5 413.167,263.5 412.5,263.5C 412.5,262.833 412.5,262.167 412.5,261.5C 414.13,259.974 414.963,257.974 415,255.5C 415.602,258.221 415.435,260.887 414.5,263.5 Z M 59.5,257.5 C 61.9732,257.947 62.1399,258.947 60,260.5C 59.5172,259.552 59.3505,258.552 59.5,257.5 Z M 412.5,261.5 C 411.203,260.151 411.37,258.818 413,257.5C 413.195,258.819 413.028,260.153 412.5,261.5 Z M 57.5,258.5 C 58.8184,262.741 58.6517,267.074 57,271.5C 57.077,267.195 57.2437,262.862 57.5,258.5 Z M 61.5,263.5 C 60.6414,266.24 60.3081,268.907 60.5,271.5C 59.0947,268.016 59.2613,264.682 61,261.5C 61.4643,262.094 61.631,262.761 61.5,263.5 Z M 412.5,263.5 C 413.167,266.5 413.833,269.5 414.5,272.5C 413.732,271.737 413.232,270.737 413,269.5C 412.667,269.833 412.333,270.167 412,270.5C 411.204,267.961 411.371,265.628 412.5,263.5 Z M 141.5,268.5 C 142.077,267.227 142.743,267.227 143.5,268.5C 143.03,269.463 142.363,269.463 141.5,268.5 Z M 413.5,277.5 C 412.504,277.414 411.671,277.748 411,278.5C 409.578,275.97 409.245,273.303 410,270.5C 410.464,276.175 411.131,276.508 412,271.5C 412.813,273.436 413.313,275.436 413.5,277.5 Z M 322.5,274.5 C 321.833,274.5 321.167,274.5 320.5,274.5C 320.5,273.833 320.5,273.167 320.5,272.5C 323.457,270.975 324.124,271.642 322.5,274.5 Z M 326.5,272.5 C 325.833,273.167 325.167,273.833 324.5,274.5C 324.281,273.325 324.614,272.325 325.5,271.5C 326.107,271.624 326.44,271.957 326.5,272.5 Z M 134.5,273.5 C 135.757,274.623 135.424,275.289 133.5,275.5C 133.833,274.833 134.167,274.167 134.5,273.5 Z M 322.5,274.5 C 323.167,274.5 323.833,274.5 324.5,274.5C 324.328,275.492 324.662,276.158 325.5,276.5C 325.291,277.922 324.791,279.255 324,280.5C 323.283,279.956 322.783,279.289 322.5,278.5C 323.686,277.295 323.686,275.961 322.5,274.5 Z M 133.5,276.5 C 136.186,277.988 135.853,278.655 132.5,278.5C 132.833,277.833 133.167,277.167 133.5,276.5 Z M 320.5,276.5 C 321.833,276.5 322.5,277.167 322.5,278.5C 321.833,278.5 321.167,278.5 320.5,278.5C 320.5,277.833 320.5,277.167 320.5,276.5 Z M 127.5,278.5 C 127.443,279.609 127.11,280.609 126.5,281.5C 126.167,281.5 125.833,281.5 125.5,281.5C 125.427,279.973 126.094,278.973 127.5,278.5 Z M 66.5,287.5 C 66.5,287.833 66.5,288.167 66.5,288.5C 65.8333,288.833 65.1667,289.167 64.5,289.5C 64.7135,287.856 64.3802,286.356 63.5,285C 64.6667,284.5 65.5,283.667 66,282.5C 65.904,284.381 66.0707,286.047 66.5,287.5 Z M 126.5,282.5 C 126.5,283.167 126.5,283.833 126.5,284.5C 125.833,284.5 125.167,284.5 124.5,284.5C 124.833,283.5 125.5,282.833 126.5,282.5 Z M 320.5,282.5 C 320.833,282.5 321.167,282.5 321.5,282.5C 323.031,283.925 322.698,284.591 320.5,284.5C 320.5,283.833 320.5,283.167 320.5,282.5 Z M 123.5,283.5 C 123.5,283.833 123.5,284.167 123.5,284.5C 122.348,285.625 121.348,285.625 120.5,284.5C 121.391,283.89 122.391,283.557 123.5,283.5 Z M 123.5,284.5 C 123.833,284.5 124.167,284.5 124.5,284.5C 124.842,285.338 125.508,285.672 126.5,285.5C 124.351,288.334 123.351,288.001 123.5,284.5 Z M 118.5,286.5 C 123.539,286.451 123.705,287.118 119,288.5C 118.536,287.906 118.369,287.239 118.5,286.5 Z M 157.5,287.5 C 158.289,287.783 158.956,288.283 159.5,289C 158.184,289.528 157.517,289.028 157.5,287.5 Z M 406.5,287.5 C 407.773,288.077 407.773,288.743 406.5,289.5C 405.537,289.03 405.537,288.363 406.5,287.5 Z M 115.5,289.5 C 117.933,289.786 117.933,290.452 115.5,291.5C 115.5,290.833 115.5,290.167 115.5,289.5 Z M 64.5,291.5 C 64.5,291.167 64.5,290.833 64.5,290.5C 65.1667,290.5 65.8333,290.5 66.5,290.5C 66.5,291.167 66.5,291.833 66.5,292.5C 65.8333,292.167 65.1667,291.833 64.5,291.5 Z M 152.5,290.5 C 153.833,290.5 154.5,291.167 154.5,292.5C 153.5,292.167 152.833,291.5 152.5,290.5 Z M 155.5,291.5 C 157.093,290.133 158.426,290.466 159.5,292.5C 159.333,292.833 159.167,293.167 159,293.5C 158.184,292.177 157.017,291.511 155.5,291.5 Z M 113.5,291.5 C 114.167,291.5 114.833,291.5 115.5,291.5C 115.5,292.5 115.5,293.5 115.5,294.5C 114.833,294.5 114.167,294.5 113.5,294.5C 114.833,293.5 114.833,292.5 113.5,291.5 Z M 118.5,291.5 C 118.5,292.167 118.5,292.833 118.5,293.5C 116.067,293.214 116.067,292.548 118.5,291.5 Z M 66.5,292.5 C 67.2891,292.783 67.9558,293.283 68.5,294C 67.184,294.528 66.5173,294.028 66.5,292.5 Z M 112.5,294.5 C 111.5,294.5 110.5,294.5 109.5,294.5C 109.5,294.167 109.5,293.833 109.5,293.5C 111.196,291.871 112.196,292.204 112.5,294.5 Z M 154.5,292.5 C 155.492,292.328 156.158,292.662 156.5,293.5C 155.075,295.031 154.409,294.698 154.5,292.5 Z M 314.5,292.5 C 314.5,293.833 313.833,294.5 312.5,294.5C 312.833,293.5 313.5,292.833 314.5,292.5 Z M 108.5,293.5 C 108.5,294.167 108.833,294.5 109.5,294.5C 110.244,297.95 108.91,299.616 105.5,299.5C 105.5,299.167 105.5,298.833 105.5,298.5C 108.167,297.833 108.167,297.167 105.5,296.5C 106.5,295.5 107.5,294.5 108.5,293.5 Z M 70.5,301.5 C 70.631,302.239 70.4643,302.906 70,303.5C 69,302.167 68,300.833 67,299.5C 66.3333,300.833 65.6667,302.167 65,303.5C 64.4208,300.983 65.2541,298.983 67.5,297.5C 66.4937,296.604 66.4937,295.938 67.5,295.5C 68.2082,297.745 69.2082,299.745 70.5,301.5 Z M 131.5,299.5 C 128.326,299.998 124.993,299.998 121.5,299.5C 121.389,298.883 121.056,298.383 120.5,298C 122.659,295.484 124.992,295.151 127.5,297C 122.719,297.699 122.553,298.199 127,298.5C 129.839,298.004 132.505,297.004 135,295.5C 136.32,295.799 137.82,295.966 139.5,296C 136.499,296.738 133.832,297.904 131.5,299.5 Z M 105.5,296.5 C 105.5,297.167 105.5,297.833 105.5,298.5C 103.067,298.214 103.067,297.548 105.5,296.5 Z M 306.5,296.5 C 306.167,297.167 305.833,297.833 305.5,298.5C 305.167,298.5 304.833,298.5 304.5,298.5C 304.5,297.167 305.167,296.5 306.5,296.5 Z M 110.5,297.5 C 111.434,298.568 111.768,299.901 111.5,301.5C 110.448,301.649 109.448,301.483 108.5,301C 109.973,300.29 110.64,299.124 110.5,297.5 Z M 164.5,297.5 C 164.5,298.167 164.833,298.5 165.5,298.5C 165.158,299.338 164.492,299.672 163.5,299.5C 163.328,298.508 163.662,297.842 164.5,297.5 Z M 405.5,301.5 C 403.915,300.998 403.415,299.998 404,298.5C 405.039,299.244 405.539,300.244 405.5,301.5 Z M 121.5,299.5 C 121.5,299.833 121.5,300.167 121.5,300.5C 120.637,301.463 119.97,301.463 119.5,300.5C 119.957,299.702 120.624,299.369 121.5,299.5 Z M 161.5,299.5 C 162.167,299.5 162.833,299.5 163.5,299.5C 163.5,300.167 163.5,300.833 163.5,301.5C 162.5,301.167 161.833,300.5 161.5,299.5 Z M 306.5,299.5 C 308.933,300.548 308.933,301.214 306.5,301.5C 306.5,300.833 306.5,300.167 306.5,299.5 Z M 121.5,300.5 C 123.199,300.34 124.866,300.506 126.5,301C 124.304,302.608 122.638,302.441 121.5,300.5 Z M 104.5,302.5 C 105.386,301.224 106.386,301.224 107.5,302.5C 106.767,303.087 105.767,303.087 104.5,302.5 Z M 405.5,301.5 C 407.028,301.517 407.528,302.184 407,303.5C 406.283,302.956 405.783,302.289 405.5,301.5 Z M 103.5,305.5 C 101.821,305.108 100.154,304.608 98.5,304C 100.719,302.093 102.386,302.593 103.5,305.5 Z M 109.5,304.5 C 109.369,303.624 109.702,302.957 110.5,302.5C 114.589,305.291 114.255,305.958 109.5,304.5 Z M 166.5,303.5 C 168.028,303.517 168.528,304.184 168,305.5C 167.283,304.956 166.783,304.289 166.5,303.5 Z M 173.5,304.5 C 173.5,305.167 173.833,305.5 174.5,305.5C 174.5,305.833 174.5,306.167 174.5,306.5C 173.508,306.328 172.842,306.662 172.5,307.5C 172.167,307.5 171.833,307.5 171.5,307.5C 171.427,305.973 172.094,304.973 173.5,304.5 Z M 171.5,307.5 C 171.5,308.167 171.5,308.833 171.5,309.5C 167.764,307.19 167.764,306.523 171.5,307.5 Z M 101.5,307.5 C 100.473,308.848 99.1398,309.348 97.5,309C 98.5634,307.812 99.8967,307.312 101.5,307.5 Z M 172.5,307.5 C 173.167,307.5 173.833,307.5 174.5,307.5C 174.5,308.167 174.5,308.833 174.5,309.5C 173.5,309.167 172.833,308.5 172.5,307.5 Z M 72.5,311.5 C 72.56,312.043 72.8933,312.376 73.5,312.5C 74.2811,311.271 74.7811,309.938 75,308.5C 75.3742,309.416 75.8742,310.25 76.5,311C 75.283,312.648 74.4497,314.481 74,316.5C 73.5604,314.924 72.727,313.59 71.5,312.5C 71.6236,311.893 71.9569,311.56 72.5,311.5 Z M 91.5,308.5 C 92.1667,308.5 92.8333,308.5 93.5,308.5C 93.2144,310.933 92.5477,310.933 91.5,308.5 Z M 398.5,308.5 C 398.5,309.5 398.5,310.5 398.5,311.5C 399.043,311.56 399.376,311.893 399.5,312.5C 398.675,313.386 397.675,313.719 396.5,313.5C 396.402,311.447 397.069,309.78 398.5,308.5 Z M 291.5,312.5 C 291.167,313.167 290.833,313.833 290.5,314.5C 289.508,314.672 288.842,314.338 288.5,313.5C 289.391,312.89 290.391,312.557 291.5,312.5 Z M 294.5,312.5 C 294.5,313.833 293.833,314.5 292.5,314.5C 292.833,313.5 293.5,312.833 294.5,312.5 Z M 78.5,316.5 C 77.2101,317.058 76.3768,318.058 76,319.5C 75.2784,317.339 75.9451,315.672 78,314.5C 78.4643,315.094 78.631,315.761 78.5,316.5 Z M 396.5,314.5 C 397.397,315.598 398.23,315.598 399,314.5C 398.526,318.446 397.693,318.446 396.5,314.5 Z M 394.5,317.5 C 394.975,319.722 395.975,320.389 397.5,319.5C 398.363,318.537 399.03,318.537 399.5,319.5C 398.754,320.736 398.421,322.07 398.5,323.5C 397.265,323.279 396.265,322.612 395.5,321.5C 393.922,322.64 392.256,323.14 390.5,323C 392.468,321.539 393.802,319.705 394.5,317.5 Z M 191.5,320.5 C 192.348,321.625 193.348,321.625 194.5,320.5C 194.81,322.144 195.81,323.144 197.5,323.5C 197.5,323.833 197.5,324.167 197.5,324.5C 195.254,323.545 192.921,322.878 190.5,322.5C 189.167,321.833 187.833,321.167 186.5,320.5C 188.36,319.929 190.027,319.929 191.5,320.5 Z M 275.5,320.5 C 274.209,320.263 273.209,320.596 272.5,321.5C 271.249,320.528 271.582,319.861 273.5,319.5C 274.416,319.543 275.083,319.876 275.5,320.5 Z M 198.5,321.5 C 199.757,322.623 199.424,323.289 197.5,323.5C 197.833,322.833 198.167,322.167 198.5,321.5 Z M 277.5,321.5 C 278.338,321.842 278.672,322.508 278.5,323.5C 277.833,323.5 277.167,323.5 276.5,323.5C 276.833,322.833 277.167,322.167 277.5,321.5 Z M 80.5,322.5 C 81.4916,322.328 82.1583,322.662 82.5,323.5C 81.8333,323.833 81.1667,324.167 80.5,324.5C 80.5,323.833 80.5,323.167 80.5,322.5 Z M 276.5,323.5 C 276.842,324.338 277.508,324.672 278.5,324.5C 276.833,325.167 275.167,325.833 273.5,326.5C 271.302,326.591 270.969,325.925 272.5,324.5C 273.833,324.167 275.167,323.833 276.5,323.5 Z M 390.5,327.5 C 391.687,325.025 393.687,324.025 396.5,324.5C 396.719,325.675 396.386,326.675 395.5,327.5C 393.872,326.465 392.205,326.465 390.5,327.5 Z M 82.5,325.5 C 82.5,326.833 81.8333,327.5 80.5,327.5C 80.5,327.167 80.5,326.833 80.5,326.5C 81.1667,326.167 81.8333,325.833 82.5,325.5 Z M 207.5,329.5 C 206.537,328.637 206.537,327.97 207.5,327.5C 209.453,328.761 211.453,329.927 213.5,331C 211.428,331.036 209.428,330.536 207.5,329.5 Z M 216.5,327.5 C 221.021,327.326 221.355,327.993 217.5,329.5C 216.702,329.043 216.369,328.376 216.5,327.5 Z M 231.5,327.5 C 232.376,327.369 233.043,327.702 233.5,328.5C 232.277,329.614 230.944,329.781 229.5,329C 230.416,328.722 231.082,328.222 231.5,327.5 Z M 247.5,330.5 C 244.904,329.735 242.237,329.401 239.5,329.5C 239.5,329.167 239.5,328.833 239.5,328.5C 243.427,327.771 247.261,327.437 251,327.5C 251.5,327.667 252,327.833 252.5,328C 250.685,328.757 249.019,329.59 247.5,330.5 Z M 247.5,330.5 C 251.502,330.354 254.502,329.521 256.5,328C 254.215,332.58 251.215,333.414 247.5,330.5 Z M 264.5,328.5 C 264.5,328.833 264.5,329.167 264.5,329.5C 263.167,329.5 261.833,329.5 260.5,329.5C 259.537,328.637 259.537,327.97 260.5,327.5C 261.736,328.246 263.07,328.579 264.5,328.5 Z M 80.5,328.5 C 81.8333,328.5 82.5,329.167 82.5,330.5C 81.5,330.167 80.8333,329.5 80.5,328.5 Z M 226.5,330.5 C 225.022,330.762 223.689,330.429 222.5,329.5C 222.667,329.167 222.833,328.833 223,328.5C 224.302,329.085 225.469,329.751 226.5,330.5 Z M 389.5,328.5 C 389.5,329.5 389.5,330.5 389.5,331.5C 387.015,330.26 387.015,329.26 389.5,328.5 Z M 239.5,329.5 C 240.952,330.302 242.618,330.802 244.5,331C 241.518,331.498 238.518,331.665 235.5,331.5C 235.389,330.883 235.056,330.383 234.5,330C 236.134,329.506 237.801,329.34 239.5,329.5 Z M 260.5,329.5 C 260.052,331.465 259.052,331.798 257.5,330.5C 258.325,329.614 259.325,329.281 260.5,329.5 Z M 226.5,330.5 C 228.415,330.216 230.081,330.549 231.5,331.5C 227.5,331.833 227.5,332.167 231.5,332.5C 230.054,333.613 228.387,333.78 226.5,333C 225.402,332.23 225.402,331.397 226.5,330.5 Z M 386.5,333.5 C 386.5,332.833 386.167,332.5 385.5,332.5C 385.747,330.025 386.413,330.025 387.5,332.5C 387.376,333.107 387.043,333.44 386.5,333.5 Z M 231.5,332.5 C 231.5,332.167 231.5,331.833 231.5,331.5C 232.833,331.5 234.167,331.5 235.5,331.5C 239.312,332.324 243.312,332.824 247.5,333C 242.115,333.733 236.782,333.567 231.5,332.5 Z M 88.5,340.5 C 88.8333,340.5 89.1667,340.5 89.5,340.5C 91.0107,342.838 90.6773,343.504 88.5,342.5C 88.5,341.833 88.5,341.167 88.5,340.5 Z M 91.5,340.5 C 91.8333,340.5 92.1667,340.5 92.5,340.5C 92.8333,341.167 93.1667,341.833 93.5,342.5C 92.1667,342.5 91.5,341.833 91.5,340.5 Z M 380.5,342.5 C 380.833,343.833 381.167,345.167 381.5,346.5C 380.069,346.119 379.236,345.119 379,343.5C 378.617,344.056 378.117,344.389 377.5,344.5C 377.821,342.952 378.821,342.285 380.5,342.5 Z M 377.5,344.5 C 377.5,345.833 376.833,346.5 375.5,346.5C 375.833,345.5 376.5,344.833 377.5,344.5 Z M 381.5,346.5 C 382.239,346.369 382.906,346.536 383.5,347C 382.748,347.671 382.414,348.504 382.5,349.5C 381.221,350.968 379.554,351.635 377.5,351.5C 377.238,350.022 377.571,348.689 378.5,347.5C 378.669,348.397 379.002,349.397 379.5,350.5C 380.705,349.423 381.372,348.09 381.5,346.5 Z M 97.5,347.5 C 98.2719,348.694 99.2719,349.694 100.5,350.5C 101.241,352.354 102.241,354.021 103.5,355.5C 101.81,355.856 100.81,356.856 100.5,358.5C 98.8212,358.715 97.8212,358.048 97.5,356.5C 98.6946,356.134 99.3613,355.301 99.5,354C 98.3906,351.953 97.7239,349.787 97.5,347.5 Z M 97.5,356.5 C 96.2521,355.666 95.5854,354.333 95.5,352.5C 95.6667,351.167 95.8333,349.833 96,348.5C 96.8215,351.117 97.3215,353.784 97.5,356.5 Z M 374.5,348.5 C 375.497,348.47 376.164,348.97 376.5,350C 375.427,350.207 374.427,351.04 373.5,352.5C 372.662,352.158 372.328,351.492 372.5,350.5C 373.5,350.167 374.167,349.5 374.5,348.5 Z M 371.5,353.5 C 369.492,354.301 368.992,355.634 370,357.5C 367.974,355.212 368.308,353.212 371,351.5C 371.464,352.094 371.631,352.761 371.5,353.5 Z M 373.5,352.5 C 375.085,353.002 375.585,354.002 375,355.5C 373.961,354.756 373.461,353.756 373.5,352.5 Z M 366.5,356.5 C 366.5,357.167 366.5,357.833 366.5,358.5C 364.067,358.214 364.067,357.548 366.5,356.5 Z M 372.5,356.5 C 376.051,357.186 376.217,358.186 373,359.5C 372.517,358.552 372.351,357.552 372.5,356.5 Z M 104.5,357.5 C 104.412,360.606 103.078,360.94 100.5,358.5C 101.833,358.167 103.167,357.833 104.5,357.5 Z M 105.5,359.5 C 106.933,360.833 108.267,362.333 109.5,364C 106.698,364.024 105.364,362.524 105.5,359.5 Z M 108.5,359.5 C 109.833,360.167 110.833,361.167 111.5,362.5C 109.5,362.5 108.5,361.5 108.5,359.5 Z M 104.5,363.5 C 105.906,363.973 106.573,364.973 106.5,366.5C 105.833,366.5 105.167,366.5 104.5,366.5C 104.5,365.5 104.5,364.5 104.5,363.5 Z M 115.5,367.5 C 113.883,366.962 112.216,366.629 110.5,366.5C 110.369,365.761 110.536,365.094 111,364.5C 112.113,365.711 113.28,365.711 114.5,364.5C 114.517,365.394 114.851,366.394 115.5,367.5 Z M 357.5,365.5 C 357.5,366.167 357.833,366.5 358.5,366.5C 358.414,367.496 358.748,368.329 359.5,369C 358.906,369.464 358.239,369.631 357.5,369.5C 357.672,368.508 357.338,367.842 356.5,367.5C 356.328,366.508 356.662,365.842 357.5,365.5 Z M 363.5,365.5 C 364.167,365.5 364.833,365.5 365.5,365.5C 363.606,368.187 362.939,368.187 363.5,365.5 Z M 115.5,367.5 C 116.833,367.5 117.5,368.167 117.5,369.5C 116.5,369.167 115.833,368.5 115.5,367.5 Z M 356.5,367.5 C 356.167,368.167 355.833,368.833 355.5,369.5C 354.833,369.833 354.167,370.167 353.5,370.5C 353.5,368.5 354.5,367.5 356.5,367.5 Z M 112.5,368.5 C 115.134,370.519 114.967,372.519 112,374.5C 112.135,372.575 112.302,370.575 112.5,368.5 Z M 117.5,369.5 C 119.179,369.285 120.179,369.952 120.5,371.5C 119.29,371.068 118.29,370.401 117.5,369.5 Z M 355.5,369.5 C 356.167,369.5 356.833,369.5 357.5,369.5C 357.167,370.167 356.833,370.833 356.5,371.5C 355.662,371.158 355.328,370.492 355.5,369.5 Z M 353.5,370.5 C 355.031,371.925 354.698,372.591 352.5,372.5C 350.969,371.075 351.302,370.409 353.5,370.5 Z M 350.5,374.5 C 350.167,374.5 349.833,374.5 349.5,374.5C 349.5,373.833 349.167,373.5 348.5,373.5C 349.988,370.814 350.655,371.147 350.5,374.5 Z M 356.5,371.5 C 357.167,371.5 357.833,371.5 358.5,371.5C 358.5,372.167 358.5,372.833 358.5,373.5C 357.167,373.5 356.5,372.833 356.5,371.5 Z M 119.5,373.5 C 118.503,374.713 117.503,374.546 116.5,373C 117.577,372.53 118.577,372.697 119.5,373.5 Z M 352.5,374.5 C 354.194,373.314 355.861,373.481 357.5,375C 355.613,375.78 353.946,375.613 352.5,374.5 Z M 345.5,376.5 C 346.12,378.977 347.12,378.977 348.5,376.5C 349.521,377.002 349.688,377.668 349,378.5C 347.275,379.464 345.441,380.131 343.5,380.5C 344.953,379.175 344.619,378.342 342.5,378C 343.527,377.487 344.527,376.987 345.5,376.5 Z M 350.5,377.5 C 351.434,378.568 351.768,379.901 351.5,381.5C 350.448,381.649 349.448,381.483 348.5,381C 349.973,380.29 350.64,379.124 350.5,377.5 Z M 131.5,381.5 C 132.391,382.11 133.391,382.443 134.5,382.5C 133.167,383.833 131.833,383.833 130.5,382.5C 131.167,382.5 131.5,382.167 131.5,381.5 Z M 345.5,382.5 C 346.077,381.227 346.743,381.227 347.5,382.5C 347.03,383.463 346.363,383.463 345.5,382.5 Z M 135.5,382.5 C 136.492,382.328 137.158,382.662 137.5,383.5C 136.662,383.842 136.328,384.508 136.5,385.5C 135.596,384.791 135.263,383.791 135.5,382.5 Z M 140.5,385.5 C 141.5,385.833 142.167,386.5 142.5,387.5C 141.833,387.5 141.167,387.5 140.5,387.5C 140.5,386.833 140.5,386.167 140.5,385.5 Z M 331.5,386.5 C 332.167,386.5 332.833,386.5 333.5,386.5C 333.328,387.492 333.662,388.158 334.5,388.5C 334.5,388.833 334.5,389.167 334.5,389.5C 333.833,389.5 333.167,389.5 332.5,389.5C 332.158,388.662 331.492,388.328 330.5,388.5C 330.5,388.167 330.5,387.833 330.5,387.5C 331.167,387.5 331.5,387.167 331.5,386.5 Z M 142.5,387.5 C 143.167,387.833 143.833,388.167 144.5,388.5C 144.5,388.833 144.5,389.167 144.5,389.5C 143.167,389.5 142.5,388.833 142.5,387.5 Z M 144.5,389.5 C 144.833,389.5 145.167,389.5 145.5,389.5C 147.054,390.895 146.721,391.561 144.5,391.5C 143.833,391.333 143.167,391.167 142.5,391C 143.416,390.722 144.082,390.222 144.5,389.5 Z M 147.5,389.5 C 148.289,389.783 148.956,390.283 149.5,391C 148.184,391.528 147.517,391.028 147.5,389.5 Z M 321.5,393.5 C 321.517,391.972 322.184,391.472 323.5,392C 322.956,392.717 322.289,393.217 321.5,393.5 Z M 325.5,392.5 C 326.621,394.316 327.121,396.316 327,398.5C 324.521,396.912 324.021,394.912 325.5,392.5 Z M 156.5,395.5 C 154.972,395.483 154.472,394.816 155,393.5C 155.717,394.044 156.217,394.711 156.5,395.5 Z M 321.5,393.5 C 320.329,394.345 318.995,395.011 317.5,395.5C 318.183,393.824 319.517,393.157 321.5,393.5 Z M 315.5,396.5 C 315.5,396.833 315.5,397.167 315.5,397.5C 314.833,397.5 314.167,397.5 313.5,397.5C 313.409,395.302 314.075,394.969 315.5,396.5 Z M 319.5,397.5 C 322.603,396.203 322.937,396.536 320.5,398.5C 319.893,398.376 319.56,398.043 319.5,397.5 Z M 156.5,397.5 C 157.609,397.557 158.609,397.89 159.5,398.5C 158.221,399.715 157.221,399.382 156.5,397.5 Z M 302.5,403.5 C 301.833,403.5 301.167,403.5 300.5,403.5C 301.596,399.711 302.263,399.711 302.5,403.5 Z M 175.5,403.5 C 176.552,403.351 177.552,403.517 178.5,404C 175.279,405.54 171.946,405.707 168.5,404.5C 168.369,403.624 168.702,402.957 169.5,402.5C 170.451,403.326 171.451,403.492 172.5,403C 171.304,402.346 171.304,401.846 172.5,401.5C 173.739,401.942 174.739,402.609 175.5,403.5 Z M 180.5,406.5 C 179.5,406.5 178.5,406.5 177.5,406.5C 179.043,404.443 180.043,404.443 180.5,406.5 Z M 300.5,404.5 C 301.167,404.5 301.833,404.5 302.5,404.5C 302.5,405.167 302.5,405.833 302.5,406.5C 301.833,406.5 301.167,406.5 300.5,406.5C 300.5,405.833 300.5,405.167 300.5,404.5 Z M 290.5,405.5 C 289.998,407.085 288.998,407.585 287.5,407C 288.244,405.961 289.244,405.461 290.5,405.5 Z M 291.5,405.5 C 295.243,405.459 295.41,406.126 292,407.5C 291.536,406.906 291.369,406.239 291.5,405.5 Z M 192.5,408.5 C 194.424,408.711 194.757,409.377 193.5,410.5C 193.167,409.833 192.833,409.167 192.5,408.5 Z M 199.5,411.5 C 198.391,410.71 197.058,410.21 195.5,410C 197.579,409.192 199.579,409.359 201.5,410.5C 201.043,411.298 200.376,411.631 199.5,411.5 Z M 273.5,412.5 C 272.432,411.566 271.099,411.232 269.5,411.5C 272.519,409.663 275.852,409.163 279.5,410C 273.825,410.464 273.492,411.131 278.5,412C 276.866,412.494 275.199,412.66 273.5,412.5 Z M 211.5,411.5 C 212.873,411.343 214.207,411.51 215.5,412C 213.07,412.783 210.904,413.949 209,415.5C 208.167,415.333 207.333,415.167 206.5,415C 208.033,413.86 209.7,412.693 211.5,411.5 Z M 264.5,412.5 C 265.919,411.549 267.585,411.216 269.5,411.5C 269.833,412.5 270.5,413.167 271.5,413.5C 271.5,413.833 271.5,414.167 271.5,414.5C 269.263,413.551 266.929,412.884 264.5,412.5 Z M 199.5,413.5 C 199.5,413.167 199.5,412.833 199.5,412.5C 201.308,412.491 202.975,412.991 204.5,414C 203.552,414.483 202.552,414.649 201.5,414.5C 201.158,413.662 200.492,413.328 199.5,413.5 Z M 219.5,412.5 C 226.133,413.214 232.8,413.714 239.5,414C 233.252,414.188 227.085,414.688 221,415.5C 219.961,414.756 219.461,413.756 219.5,412.5 Z M 264.5,412.5 C 264.833,413.167 265.167,413.833 265.5,414.5C 264.167,414.5 262.833,414.5 261.5,414.5C 262.29,413.599 263.29,412.932 264.5,412.5 Z M 199.5,413.5 C 199.217,414.289 198.717,414.956 198,415.5C 196.006,414.721 194.172,414.387 192.5,414.5C 194.743,413.526 197.076,413.192 199.5,413.5 Z"/></g>
<g><path style="opacity:0.015" fill="#fefffe" d="M 247.5,57.5 C 245.052,58.4731 242.385,58.8064 239.5,58.5C 239.369,57.6236 239.702,56.9569 240.5,56.5C 242.747,57.3742 245.08,57.7076 247.5,57.5 Z"/></g>
<g><path style="opacity:0.016" fill="#fefffe" d="M 176.5,64.5 C 178.553,64.4021 180.22,65.0687 181.5,66.5C 179.447,66.5979 177.78,65.9313 176.5,64.5 Z"/></g>
<g><path style="opacity:0.008" fill="#fefffe" d="M 171.5,66.5 C 172.084,69.285 171.084,70.9517 168.5,71.5C 167.916,68.715 168.916,67.0483 171.5,66.5 Z"/></g>
<g><path style="opacity:0.034" fill="#fefffe" d="M 322.5,81.5 C 322.842,80.6618 323.508,80.3284 324.5,80.5C 324.833,81.1667 325.167,81.8333 325.5,82.5C 324.833,82.5 324.167,82.5 323.5,82.5C 323.5,81.8333 323.167,81.5 322.5,81.5 Z"/></g>
<g><path style="opacity:0.033" fill="#fefffe" d="M 143.5,83.5 C 144.167,83.5 144.833,83.5 145.5,83.5C 145.5,83.8333 145.5,84.1667 145.5,84.5C 144.833,84.5 144.5,84.8333 144.5,85.5C 144.167,85.5 143.833,85.5 143.5,85.5C 143.5,84.8333 143.5,84.1667 143.5,83.5 Z"/></g>
<g><path style="opacity:0.061" fill="#fefffe" d="M 129.5,91.5 C 130.167,91.5 130.833,91.5 131.5,91.5C 131.5,91.8333 131.5,92.1667 131.5,92.5C 130.833,92.5 130.5,92.8333 130.5,93.5C 129.833,93.5 129.167,93.5 128.5,93.5C 128.5,93.1667 128.5,92.8333 128.5,92.5C 129.167,92.5 129.5,92.1667 129.5,91.5 Z"/></g>
<g><path style="opacity:0.026" fill="#fefffe" d="M 339.5,107.5 C 339.833,107.5 340.167,107.5 340.5,107.5C 340.5,108.167 340.833,108.5 341.5,108.5C 341.5,109.167 341.833,109.5 342.5,109.5C 342.5,109.833 342.5,110.167 342.5,110.5C 341.833,110.5 341.167,110.5 340.5,110.5C 339.833,109.833 339.167,109.167 338.5,108.5C 339.167,108.5 339.5,108.167 339.5,107.5 Z"/></g>
<g><path style="opacity:0.029" fill="#fefffe" d="M 203.5,145.5 C 203.5,146.167 203.5,146.833 203.5,147.5C 202.209,147.737 201.209,147.404 200.5,146.5C 201.609,146.443 202.609,146.11 203.5,145.5 Z"/></g>
<g><path style="opacity:0.043" fill="#fefffe" d="M 156.5,182.5 C 157.167,182.833 157.833,183.167 158.5,183.5C 158.5,183.833 158.5,184.167 158.5,184.5C 157.833,184.5 157.167,184.5 156.5,184.5C 156.5,183.833 156.5,183.167 156.5,182.5 Z"/></g>
<g><path style="opacity:0.041" fill="#fefffe" d="M 146.5,200.5 C 147.885,201.947 147.552,202.947 145.5,203.5C 146.11,202.609 146.443,201.609 146.5,200.5 Z"/></g>
<g><path style="opacity:0.035" fill="#fefffe" d="M 148.5,206.5 C 147.833,206.5 147.167,206.5 146.5,206.5C 147.548,204.067 148.214,204.067 148.5,206.5 Z"/></g>
<g><path style="opacity:0.019" fill="#fefffe" d="M 58.5,207.5 C 58.8333,207.5 59.1667,207.5 59.5,207.5C 59.5,208.5 59.5,209.5 59.5,210.5C 58.2223,210.782 57.2223,211.449 56.5,212.5C 56.5,211.5 56.5,210.5 56.5,209.5C 57.5,209.167 58.1667,208.5 58.5,207.5 Z"/></g>
<g><path style="opacity:0.038" fill="#fefffe" d="M 360.5,234.5 C 361.5,234.5 362.5,234.5 363.5,234.5C 364.209,235.404 365.209,235.737 366.5,235.5C 366.5,235.833 366.5,236.167 366.5,236.5C 363.99,236.946 361.99,236.28 360.5,234.5 Z"/></g>
<g><path style="opacity:0.03" fill="#fefffe" d="M 320.5,274.5 C 321.167,274.5 321.833,274.5 322.5,274.5C 323.686,275.961 323.686,277.295 322.5,278.5C 322.5,277.167 321.833,276.5 320.5,276.5C 320.5,275.833 320.5,275.167 320.5,274.5 Z"/></g>
<g><path style="opacity:0.013" fill="#fefffe" d="M 66.5,288.5 C 66.5,289.167 66.5,289.833 66.5,290.5C 65.8333,290.5 65.1667,290.5 64.5,290.5C 64.5,290.167 64.5,289.833 64.5,289.5C 65.1667,289.167 65.8333,288.833 66.5,288.5 Z"/></g>
<g><path style="opacity:0.035" fill="#fefffe" d="M 114.5,289.5 C 114.833,289.5 115.167,289.5 115.5,289.5C 115.5,290.167 115.5,290.833 115.5,291.5C 114.833,291.5 114.167,291.5 113.5,291.5C 113.5,291.167 113.5,290.833 113.5,290.5C 114.167,290.5 114.5,290.167 114.5,289.5 Z"/></g>
<g><path style="opacity:0.046" fill="#fefffe" d="M 105.5,296.5 C 108.167,297.167 108.167,297.833 105.5,298.5C 105.5,297.833 105.5,297.167 105.5,296.5 Z"/></g>
<g><path style="opacity:0.033" fill="#fefffe" d="M 162.5,296.5 C 163.167,296.5 163.833,296.5 164.5,296.5C 164.5,296.833 164.5,297.167 164.5,297.5C 163.662,297.842 163.328,298.508 163.5,299.5C 162.833,299.5 162.167,299.5 161.5,299.5C 161.5,299.167 161.5,298.833 161.5,298.5C 162.338,298.158 162.672,297.492 162.5,296.5 Z"/></g>
<g><path style="opacity:0.017" fill="#fefffe" d="M 194.5,320.5 C 195.167,320.5 195.833,320.5 196.5,320.5C 196.842,321.338 197.508,321.672 198.5,321.5C 198.167,322.167 197.833,322.833 197.5,323.5C 195.81,323.144 194.81,322.144 194.5,320.5 Z"/></g>
<g><path style="opacity:0.031" fill="#fefffe" d="M 272.5,321.5 C 273.209,320.596 274.209,320.263 275.5,320.5C 275.842,321.338 276.508,321.672 277.5,321.5C 277.167,322.167 276.833,322.833 276.5,323.5C 275.167,323.833 273.833,324.167 272.5,324.5C 272.5,323.833 272.5,323.167 272.5,322.5C 275.167,322.167 275.167,321.833 272.5,321.5 Z"/></g>
<g><path style="opacity:0.082" fill="#fefffe" d="M 82.5,323.5 C 82.5,324.167 82.5,324.833 82.5,325.5C 81.8333,325.833 81.1667,326.167 80.5,326.5C 80.5,325.833 80.5,325.167 80.5,324.5C 81.1667,324.167 81.8333,323.833 82.5,323.5 Z"/></g>
<g><path style="opacity:0.008" fill="#fefffe" d="M 103.5,355.5 C 103.833,356.167 104.167,356.833 104.5,357.5C 103.167,357.833 101.833,358.167 100.5,358.5C 100.81,356.856 101.81,355.856 103.5,355.5 Z"/></g>
<g><path style="opacity:0.052" fill="#fefffe" d="M 365.5,360.5 C 365.833,360.5 366.167,360.5 366.5,360.5C 366.5,361.167 366.5,361.833 366.5,362.5C 365.167,363.167 363.833,363.833 362.5,364.5C 362.5,363.833 362.167,363.5 361.5,363.5C 361.5,363.167 361.5,362.833 361.5,362.5C 362.167,362.5 362.5,362.167 362.5,361.5C 363.895,362.815 364.895,362.481 365.5,360.5 Z"/></g>
<g><path style="opacity:0.06" fill="#fefffe" d="M 356.5,367.5 C 357.338,367.842 357.672,368.508 357.5,369.5C 356.833,369.5 356.167,369.5 355.5,369.5C 355.833,368.833 356.167,368.167 356.5,367.5 Z"/></g>
<g><path style="opacity:0.037" fill="#fefffe" d="M 137.5,383.5 C 137.5,384.167 137.833,384.5 138.5,384.5C 138.5,384.833 138.5,385.167 138.5,385.5C 137.833,385.5 137.167,385.5 136.5,385.5C 136.328,384.508 136.662,383.842 137.5,383.5 Z"/></g>
<g><path style="opacity:0.034" fill="#fefffe" d="M 269.5,411.5 C 271.099,411.232 272.432,411.566 273.5,412.5C 272.508,412.328 271.842,412.662 271.5,413.5C 270.5,413.167 269.833,412.5 269.5,411.5 Z"/></g>
</svg>
